<mxfile host="65bd71144e" pages="4">
    <diagram id="MpYevVM_KFVB77I1mFUN" name="Nestjs">
        <mxGraphModel dx="734" dy="319" grid="1" gridSize="10" guides="1" tooltips="1" connect="1" arrows="1" fold="1" page="1" pageScale="1" pageWidth="850" pageHeight="1100" math="0" shadow="0">
            <root>
                <mxCell id="0"/>
                <mxCell id="1" parent="0"/>
            </root>
        </mxGraphModel>
    </diagram>
    <diagram name="dependency error ( chapter 3)" id="OZJ_Pl4VJdG7FFEXrW-a">
        <mxGraphModel dx="734" dy="319" grid="1" gridSize="10" guides="1" tooltips="1" connect="1" arrows="1" fold="1" page="1" pageScale="1" pageWidth="850" pageHeight="1100" math="0" shadow="0">
            <root>
                <mxCell id="IU9oknOhQ6_07HFKOYu--0"/>
                <mxCell id="IU9oknOhQ6_07HFKOYu--1" parent="IU9oknOhQ6_07HFKOYu--0"/>
                <mxCell id="IU9oknOhQ6_07HFKOYu--2" value="Issue" style="html=1;fillColor=none;strokeColor=none;fontSize=11;align=left;fontColor=#FFFFFF;whiteSpace=wrap;sketch=1;hachureGap=4;pointerEvents=0;fontFamily=Architects Daughter;fontSource=https%3A%2F%2Ffonts.googleapis.com%2Fcss%3Ffamily%3DArchitects%2BDaughter;labelBackgroundColor=#212121;" parent="IU9oknOhQ6_07HFKOYu--1" vertex="1">
                    <mxGeometry x="260" y="260" width="150" height="20" as="geometry"/>
                </mxCell>
                <mxCell id="IU9oknOhQ6_07HFKOYu--3" value="Dependency Error&amp;nbsp;" style="rounded=1;arcSize=9;fillColor=#ffffff;strokeColor=#4C9AFF;html=1;strokeWidth=2;spacingLeft=5;fontColor=#FFFFFF;align=left;sketch=1;hachureGap=4;pointerEvents=0;fontFamily=Architects Daughter;fontSource=https%3A%2F%2Ffonts.googleapis.com%2Fcss%3Ffamily%3DArchitects%2BDaughter;fontSize=20;labelBackgroundColor=#212121;" parent="IU9oknOhQ6_07HFKOYu--1" vertex="1">
                    <mxGeometry x="300" y="287" width="340" height="33" as="geometry"/>
                </mxCell>
                <mxCell id="IU9oknOhQ6_07HFKOYu--4" value="" style="html=1;shadow=0;dashed=0;shape=mxgraph.atlassian.close;fillColor=#97A0AF;strokeColor=none;sketch=0;hachureGap=4;pointerEvents=0;fontFamily=Architects Daughter;fontSource=https%3A%2F%2Ffonts.googleapis.com%2Fcss%3Ffamily%3DArchitects%2BDaughter;fontSize=20;labelBackgroundColor=#212121;fontColor=#FFFFFF;" parent="IU9oknOhQ6_07HFKOYu--3" vertex="1">
                    <mxGeometry x="1" y="0.5" width="14" height="14" relative="1" as="geometry">
                        <mxPoint x="-28" y="-7" as="offset"/>
                    </mxGeometry>
                </mxCell>
                <mxCell id="IU9oknOhQ6_07HFKOYu--5" value="The server did not respond" style="rounded=1;fillColor=#ffffff;strokeColor=#DFE1E5;shadow=1;arcSize=1;fontSize=12;fontColor=#FFFFFF;align=center;html=1;verticalAlign=top;spacingTop=5;sketch=1;hachureGap=4;pointerEvents=0;fontFamily=Architects Daughter;fontSource=https%3A%2F%2Ffonts.googleapis.com%2Fcss%3Ffamily%3DArchitects%2BDaughter;labelBackgroundColor=#212121;" parent="IU9oknOhQ6_07HFKOYu--1" vertex="1">
                    <mxGeometry x="260" y="320" width="410" height="90" as="geometry"/>
                </mxCell>
                <mxCell id="IU9oknOhQ6_07HFKOYu--6" value="one service depend on ther serviceÂ " style="align=center;strokeColor=none;fillColor=#F1F2F4;rounded=1;arcSize=9;sketch=1;hachureGap=4;pointerEvents=0;fontFamily=Architects Daughter;fontSource=https%3A%2F%2Ffonts.googleapis.com%2Fcss%3Ffamily%3DArchitects%2BDaughter;fontSize=20;labelBackgroundColor=#212121;fontColor=#FFFFFF;" parent="IU9oknOhQ6_07HFKOYu--5" vertex="1">
                    <mxGeometry width="50" height="33" relative="1" as="geometry">
                        <mxPoint x="150" y="40" as="offset"/>
                    </mxGeometry>
                </mxCell>
                <mxCell id="IU9oknOhQ6_07HFKOYu--7" value="" style="sketch=0;html=1;aspect=fixed;strokeColor=none;shadow=0;align=center;verticalAlign=top;fillColor=#3B8DF1;shape=mxgraph.gcp2.solution;labelBackgroundColor=#212121;fontColor=#FFFFFF;" parent="IU9oknOhQ6_07HFKOYu--1" vertex="1">
                    <mxGeometry x="161" y="510" width="99" height="100" as="geometry"/>
                </mxCell>
                <mxCell id="IU9oknOhQ6_07HFKOYu--8" style="edgeStyle=orthogonalEdgeStyle;rounded=0;orthogonalLoop=1;jettySize=auto;html=1;labelBackgroundColor=#212121;fontColor=#FFFFFF;" parent="IU9oknOhQ6_07HFKOYu--1" source="IU9oknOhQ6_07HFKOYu--9" edge="1">
                    <mxGeometry relative="1" as="geometry">
                        <mxPoint x="430" y="740" as="targetPoint"/>
                    </mxGeometry>
                </mxCell>
                <mxCell id="IU9oknOhQ6_07HFKOYu--9" value="Service A" style="rounded=0;whiteSpace=wrap;html=1;labelBackgroundColor=#212121;fontColor=#FFFFFF;" parent="IU9oknOhQ6_07HFKOYu--1" vertex="1">
                    <mxGeometry x="130" y="670" width="120" height="140" as="geometry"/>
                </mxCell>
                <mxCell id="IU9oknOhQ6_07HFKOYu--10" style="edgeStyle=orthogonalEdgeStyle;rounded=0;orthogonalLoop=1;jettySize=auto;html=1;labelBackgroundColor=#212121;fontColor=#FFFFFF;" parent="IU9oknOhQ6_07HFKOYu--1" source="IU9oknOhQ6_07HFKOYu--11" edge="1">
                    <mxGeometry relative="1" as="geometry">
                        <mxPoint x="260" y="740" as="targetPoint"/>
                    </mxGeometry>
                </mxCell>
                <mxCell id="IU9oknOhQ6_07HFKOYu--11" value="Service B" style="rounded=0;whiteSpace=wrap;html=1;labelBackgroundColor=#212121;fontColor=#FFFFFF;" parent="IU9oknOhQ6_07HFKOYu--1" vertex="1">
                    <mxGeometry x="440" y="670" width="120" height="140" as="geometry"/>
                </mxCell>
                <mxCell id="IU9oknOhQ6_07HFKOYu--12" value="" style="curved=1;endArrow=classic;html=1;rounded=0;startArrow=none;labelBackgroundColor=#212121;fontColor=#FFFFFF;" parent="IU9oknOhQ6_07HFKOYu--1" source="IU9oknOhQ6_07HFKOYu--13" edge="1">
                    <mxGeometry width="50" height="50" relative="1" as="geometry">
                        <mxPoint x="540" y="600" as="sourcePoint"/>
                        <mxPoint x="590" y="550" as="targetPoint"/>
                        <Array as="points">
                            <mxPoint x="540" y="550"/>
                        </Array>
                    </mxGeometry>
                </mxCell>
                <mxCell id="IU9oknOhQ6_07HFKOYu--13" value="&lt;span style=&quot;font-family: consolas, &amp;quot;courier new&amp;quot;, monospace; font-size: 14px;&quot;&gt;forwardRef&lt;/span&gt;&amp;nbsp;: dependent servies import in each other services&amp;nbsp;" style="rounded=1;arcSize=9;align=left;spacingLeft=5;strokeColor=#4C9AFF;html=1;strokeWidth=2;fontSize=12;labelBackgroundColor=#212121;fontColor=#FFFFFF;" parent="IU9oknOhQ6_07HFKOYu--1" vertex="1">
                    <mxGeometry x="300" y="480" width="370" height="89" as="geometry"/>
                </mxCell>
                <mxCell id="IU9oknOhQ6_07HFKOYu--14" value="" style="curved=1;endArrow=classic;html=1;rounded=0;labelBackgroundColor=#212121;fontColor=#FFFFFF;" parent="IU9oknOhQ6_07HFKOYu--1" edge="1">
                    <mxGeometry width="50" height="50" relative="1" as="geometry">
                        <mxPoint x="300" y="740" as="sourcePoint"/>
                        <mxPoint x="340" y="851.6000366210938" as="targetPoint"/>
                        <Array as="points">
                            <mxPoint x="350" y="740"/>
                            <mxPoint x="300" y="690"/>
                        </Array>
                    </mxGeometry>
                </mxCell>
                <mxCell id="IU9oknOhQ6_07HFKOYu--15" value="import in each other services&amp;nbsp;" style="html=1;verticalLabelPosition=bottom;align=center;labelBackgroundColor=#212121;verticalAlign=top;strokeWidth=2;strokeColor=#0080F0;shadow=0;dashed=0;shape=mxgraph.ios7.icons.message;fontColor=#FFFFFF;" parent="IU9oknOhQ6_07HFKOYu--1" vertex="1">
                    <mxGeometry x="300" y="860" width="160" height="100" as="geometry"/>
                </mxCell>
                <mxCell id="IU9oknOhQ6_07HFKOYu--16" value="&lt;font style=&quot;font-size: 18px&quot;&gt;import { HttpException, HttpStatus, Injectable } from '@nestjs/common';&lt;br&gt;import { UsersService } from '../users/users.service';&lt;br&gt;import RegisterDto from './dto/register.dto';&lt;br&gt;import * as bcrypt from 'bcrypt';&lt;br&gt;import PostgresErrorCode from '../database/postgresErrorCode.enum';&lt;br&gt;import { JwtService } from '@nestjs/jwt';&lt;br&gt;import { ConfigService } from '@nestjs/config';&lt;br&gt;import TokenPayload from './tokenPayload.interface';&lt;br&gt;&lt;br&gt;@Injectable()&lt;br&gt;export class AuthenticationService {&lt;br&gt;  constructor(&lt;br&gt;    private readonly usersService: UsersService,&lt;br&gt;    private readonly jwtService: JwtService,&lt;br&gt;    private readonly configService: ConfigService&lt;br&gt;  ) {}&lt;br&gt;&lt;br&gt;  public async register(registrationData: RegisterDto) {&lt;br&gt;    const hashedPassword = await bcrypt.hash(registrationData.password, 10);&lt;br&gt;    try {&lt;br&gt;      const createdUser = await this.usersService.create({&lt;br&gt;        ...registrationData,&lt;br&gt;        password: hashedPassword&lt;br&gt;      });&lt;br&gt;      createdUser.password = undefined;&lt;br&gt;      return createdUser;&lt;br&gt;    } catch (error) {&lt;br&gt;      if (error?.code === PostgresErrorCode.UniqueViolation) {&lt;br&gt;        throw new HttpException('User with that email already exists', HttpStatus.BAD_REQUEST);&lt;br&gt;      }&lt;br&gt;      throw new HttpException('Something went wrong', HttpStatus.INTERNAL_SERVER_ERROR);&lt;br&gt;    }&lt;br&gt;  }&lt;br&gt;&lt;br&gt;  public getCookieWithJwtToken(userId: number) {&lt;br&gt;    const payload: TokenPayload = { userId };&lt;br&gt;    const token = this.jwtService.sign(payload);&lt;br&gt;    return `Authentication=${token}; HttpOnly; Path=/; Max-Age=${this.configService.get('JWT_EXPIRATION_TIME')}`;&lt;br&gt;  }&lt;br&gt;&lt;br&gt;  public getCookieForLogOut() {&lt;br&gt;    return `Authentication=; HttpOnly; Path=/; Max-Age=0`;&lt;br&gt;  }&lt;br&gt;&lt;br&gt;  public async getAuthenticatedUser(email: string, plainTextPassword: string) {&lt;br&gt;    try {&lt;br&gt;      const user = await this.usersService.getByEmail(email);&lt;br&gt;      await this.verifyPassword(plainTextPassword, user.password);&lt;br&gt;      return user;&lt;br&gt;    } catch (error) {&lt;br&gt;      throw new HttpException('Wrong credentials provided', HttpStatus.BAD_REQUEST);&lt;br&gt;    }&lt;br&gt;  }&lt;br&gt;&lt;br&gt;  private async verifyPassword(plainTextPassword: string, hashedPassword: string) {&lt;br&gt;    const isPasswordMatching = await bcrypt.compare(&lt;br&gt;      plainTextPassword,&lt;br&gt;      hashedPassword&lt;br&gt;    );&lt;br&gt;    if (!isPasswordMatching) {&lt;br&gt;      throw new HttpException('Wrong credentials provided', HttpStatus.BAD_REQUEST);&lt;br&gt;    }&lt;br&gt;  }&lt;br&gt;}&lt;/font&gt;" style="text;whiteSpace=wrap;html=1;labelBackgroundColor=#212121;fontColor=#FFFFFF;align=center;" parent="IU9oknOhQ6_07HFKOYu--1" vertex="1">
                    <mxGeometry x="740" y="1200" width="580" height="940" as="geometry"/>
                </mxCell>
                <mxCell id="IU9oknOhQ6_07HFKOYu--17" value="&lt;font style=&quot;font-size: 18px&quot;&gt;import {&lt;br&gt;  HttpException,&lt;br&gt;  HttpStatus,&lt;br&gt;  Inject,&lt;br&gt;  Injectable,&lt;br&gt;  forwardRef,&lt;br&gt;} from '@nestjs/common';&lt;br&gt;import { AuthenticationService } from 'src/authentication/authentication.service';&lt;br&gt;import { Repository, Connection, getManager } from 'typeorm';&lt;br&gt;import CreateUserDto from './dto/create-user.dto';&lt;br&gt;import User from './entities/user.entity';&lt;br&gt;import { UserRepository } from './repositories/user.repository';&lt;br&gt;&lt;br&gt;@Injectable()&lt;br&gt;export class UsersService {&lt;br&gt;  constructor(&lt;br&gt;    @Inject(forwardRef(() =&amp;gt; AuthenticationService))&lt;br&gt;    @Inject(User)&lt;br&gt;    private usersRepository: Repository,&lt;br&gt;    private readonly authenticationService: AuthenticationService,&lt;br&gt;    private readonly user123: UserRepository,&lt;br&gt;  ) {&lt;br&gt;  }&lt;br&gt;&lt;br&gt;  async getByEmail(email: string) {&lt;br&gt;    const user = await this.user123.findOne({ email });&lt;br&gt;    if (user) {&lt;br&gt;      return user;&lt;br&gt;    }&lt;br&gt;    throw new HttpException(&lt;br&gt;      'User with this email does not exist',&lt;br&gt;      HttpStatus.NOT_FOUND,&lt;br&gt;    );&lt;br&gt;  }&lt;br&gt;&lt;br&gt;  async getById(id: number) {&lt;br&gt;    const user = await this.usersRepository.findOne({ id });&lt;br&gt;    if (user) {&lt;br&gt;      return user;&lt;br&gt;    }&lt;br&gt;    throw new HttpException(&lt;br&gt;      'User with this id does not exist',&lt;br&gt;      HttpStatus.NOT_FOUND,&lt;br&gt;    );&lt;br&gt;  }&lt;br&gt;&lt;br&gt;  async create(userData: CreateUserDto) {&lt;br&gt;    // const abc= await this.user123.c&lt;br&gt;    const newUser = await this.user123.create(userData);&lt;br&gt;&lt;br&gt;    await this.user123.save(newUser);&lt;br&gt;    return newUser;&lt;br&gt;  }&lt;br&gt;}&lt;/font&gt;" style="text;whiteSpace=wrap;html=1;fontColor=#FFFFFF;labelBackgroundColor=#1F1F1F;align=center;" parent="IU9oknOhQ6_07HFKOYu--1" vertex="1">
                    <mxGeometry x="40" y="1200" width="600" height="770" as="geometry"/>
                </mxCell>
                <mxCell id="IU9oknOhQ6_07HFKOYu--18" value="import { Module,forwardRef } from '@nestjs/common';&#10;import { UsersService } from './users.service';&#10;import { TypeOrmModule } from '@nestjs/typeorm';&#10;import User from './entities/user.entity';&#10;import { UsersController } from './users.controller';&#10;import { AuthenticationService } from 'src/authentication/authentication.service';&#10;import {  ConfigService } from '@nestjs/config';&#10;import { JwtModule } from '@nestjs/jwt';&#10;import { AuthenticationModule } from 'src/authentication/authentication.module';&#10;import { UserRepository } from './repositories/user.repository';&#10; &#10;@Module({&#10;  imports: [TypeOrmModule.forFeature([User,UserRepository]),JwtModule.register({})],&#10;  providers: [UsersService,AuthenticationService,ConfigService],&#10;  exports: [UsersService,AuthenticationService,ConfigService],&#10;  controllers:[UsersController]&#10;})&#10;export class UsersModule {}" style="text;whiteSpace=wrap;html=1;fontSize=18;fontColor=#212121;align=center;labelBackgroundColor=default;" parent="IU9oknOhQ6_07HFKOYu--1" vertex="1">
                    <mxGeometry x="130" y="2660" width="550" height="480" as="geometry"/>
                </mxCell>
                <mxCell id="IU9oknOhQ6_07HFKOYu--19" value="import { Module,forwardRef } from '@nestjs/common';&#10;import { AuthenticationService } from './authentication.service';&#10;import { UsersModule } from '../users/users.module';&#10;import { AuthenticationController } from './authentication.controller';&#10;import { PassportModule } from '@nestjs/passport';&#10;import { LocalStrategy } from './local.strategy';&#10;import { ConfigModule, ConfigService } from '@nestjs/config';&#10;import { JwtModule } from '@nestjs/jwt'; &#10;import { JwtStrategy } from './jwt.strategy';&#10;&#10;@Module({&#10;  imports: [UsersModule, PassportModule,&#10;    JwtModule.registerAsync({&#10;      imports:[ConfigModule],&#10;      inject:[ConfigService],&#10;      useFactory:async (configService:ConfigService) =&amp;gt; ({&#10;        secret:configService.get('JWT_SECRET'),&#10;        signOptions:{&#10;          expiresIn: `${configService.get('JWT_EXPIRATION_TIME')}`,   &#10;             },&#10;        }),&#10;    })&#10;  ],&#10; &#10;  providers: [AuthenticationService,LocalStrategy,JwtStrategy ],&#10;  controllers: [AuthenticationController],&#10;  exports:[AuthenticationService]&#10;})&#10;export class AuthenticationModule {}" style="text;whiteSpace=wrap;html=1;fontSize=18;fontColor=#212121;labelBackgroundColor=default;align=center;" parent="IU9oknOhQ6_07HFKOYu--1" vertex="1">
                    <mxGeometry x="940" y="2970" width="550" height="680" as="geometry"/>
                </mxCell>
            </root>
        </mxGraphModel>
    </diagram>
    <diagram id="VOpYCdXJu-8P1aLKEnK0" name="Jwt Module Error (chapter 3)">
        <mxGraphModel dx="734" dy="319" grid="1" gridSize="10" guides="1" tooltips="1" connect="1" arrows="1" fold="1" page="1" pageScale="1" pageWidth="850" pageHeight="1100" math="0" shadow="0">
            <root>
                <mxCell id="fMXmmorf6Hyql_ORaNdt-0"/>
                <mxCell id="fMXmmorf6Hyql_ORaNdt-1" parent="fMXmmorf6Hyql_ORaNdt-0"/>
                <mxCell id="fMXmmorf6Hyql_ORaNdt-2" value="&lt;font color=&quot;#1f1f1f&quot;&gt;Jwt Module error&amp;nbsp;&lt;/font&gt;" style="html=1;strokeColor=none;fillColor=#0079D6;labelPosition=center;verticalLabelPosition=middle;verticalAlign=top;align=center;fontSize=12;outlineConnect=0;spacingTop=-6;fontColor=#FFFFFF;sketch=0;shape=mxgraph.sitemap.error;labelBackgroundColor=default;labelBorderColor=#73FF40;" parent="fMXmmorf6Hyql_ORaNdt-1" vertex="1">
                    <mxGeometry x="280" y="110" width="120" height="70" as="geometry"/>
                </mxCell>
                <mxCell id="fMXmmorf6Hyql_ORaNdt-3" value="" style="sketch=0;html=1;aspect=fixed;strokeColor=none;shadow=0;align=center;verticalAlign=top;fillColor=#3B8DF1;shape=mxgraph.gcp2.solution;labelBackgroundColor=default;labelBorderColor=#73FF40;fontSize=18;fontColor=#1F1F1F;" parent="fMXmmorf6Hyql_ORaNdt-1" vertex="1">
                    <mxGeometry x="100" y="260" width="99" height="100" as="geometry"/>
                </mxCell>
                <mxCell id="fMXmmorf6Hyql_ORaNdt-4" value="imports:[TypeOrmModule.forFeature([User,UserRepository]),&lt;u&gt;JwtModule.register({})],&lt;/u&gt;" style="text;whiteSpace=wrap;html=1;fontSize=18;fontColor=#1F1F1F;labelBackgroundColor=default;" parent="fMXmmorf6Hyql_ORaNdt-1" vertex="1">
                    <mxGeometry x="291" y="300" width="629" height="60" as="geometry"/>
                </mxCell>
            </root>
        </mxGraphModel>
    </diagram>
    <diagram id="hSvYa19Q_NPW9JXyTZu-" name="Repositry (error chapter 3)">
        <mxGraphModel dx="734" dy="319" grid="1" gridSize="10" guides="1" tooltips="1" connect="1" arrows="1" fold="1" page="1" pageScale="1" pageWidth="850" pageHeight="1100" math="0" shadow="0">
            <root>
                <mxCell id="UdOhD3FomwutlEvzlqut-0"/>
                <mxCell id="UdOhD3FomwutlEvzlqut-1" parent="UdOhD3FomwutlEvzlqut-0"/>
                <mxCell id="UdOhD3FomwutlEvzlqut-2" value="" style="strokeColor=#dddddd;shadow=1;strokeWidth=1;rounded=1;absoluteArcSize=1;arcSize=2;labelBackgroundColor=default;labelBorderColor=#73FF40;fontSize=18;fontColor=#1F1F1F;" parent="UdOhD3FomwutlEvzlqut-1" vertex="1">
                    <mxGeometry x="190" y="90" width="330" height="110" as="geometry"/>
                </mxCell>
                <mxCell id="UdOhD3FomwutlEvzlqut-3" value="&amp;nbsp;Error : Reposity not access funnction&amp;nbsp;&lt;br&gt;&amp;nbsp;like create , find and fineOne ...." style="sketch=0;dashed=0;connectable=0;html=1;fillColor=#5184F3;strokeColor=none;shape=mxgraph.gcp2.hexIcon;prIcon=error_reporting;part=1;labelPosition=right;verticalLabelPosition=middle;align=left;verticalAlign=middle;spacingLeft=5;fontColor=#999999;fontSize=12;labelBackgroundColor=default;labelBorderColor=#73FF40;" parent="UdOhD3FomwutlEvzlqut-2" vertex="1">
                    <mxGeometry y="0.5" width="44" height="39" relative="1" as="geometry">
                        <mxPoint x="5" y="-19.5" as="offset"/>
                    </mxGeometry>
                </mxCell>
                <mxCell id="UdOhD3FomwutlEvzlqut-4" value="this is due to reposity name change , or not registered with entites&amp;nbsp;&amp;nbsp;" style="rounded=0;whiteSpace=wrap;html=1;labelBackgroundColor=default;labelBorderColor=#73FF40;fontSize=18;fontColor=#1F1F1F;" parent="UdOhD3FomwutlEvzlqut-1" vertex="1">
                    <mxGeometry x="170" y="300" width="500" height="60" as="geometry"/>
                </mxCell>
                <mxCell id="UdOhD3FomwutlEvzlqut-5" value="" style="sketch=0;html=1;aspect=fixed;strokeColor=none;shadow=0;align=center;verticalAlign=top;fillColor=#3B8DF1;shape=mxgraph.gcp2.solution;labelBackgroundColor=default;labelBorderColor=#73FF40;fontSize=18;fontColor=#1F1F1F;" parent="UdOhD3FomwutlEvzlqut-1" vertex="1">
                    <mxGeometry x="120" y="450" width="99" height="100" as="geometry"/>
                </mxCell>
                <mxCell id="UdOhD3FomwutlEvzlqut-6" value="&amp;nbsp; &amp;nbsp; &amp;nbsp; &amp;nbsp; &amp;nbsp; &amp;nbsp; &amp;nbsp; &amp;nbsp; &amp;nbsp; &amp;nbsp; &amp;nbsp; &amp;nbsp; &amp;nbsp; &amp;nbsp; &amp;nbsp; &amp;nbsp; &amp;nbsp; &amp;nbsp; &amp;nbsp; &amp;nbsp; &amp;nbsp; &amp;nbsp; &amp;nbsp; &amp;nbsp; &amp;nbsp; &amp;nbsp; &amp;nbsp; &amp;nbsp; &amp;nbsp; &amp;nbsp; &amp;nbsp; &amp;nbsp; &amp;nbsp; &amp;nbsp; &amp;nbsp; &amp;nbsp; &amp;nbsp; &amp;nbsp; &amp;nbsp; &amp;nbsp; &amp;nbsp; &amp;nbsp; &amp;nbsp; &amp;nbsp; &amp;nbsp; &amp;nbsp; &amp;nbsp; &amp;nbsp; &amp;nbsp; &amp;nbsp; &amp;nbsp; &amp;nbsp;&lt;br&gt;&amp;nbsp; &amp;nbsp; &amp;nbsp; &amp;nbsp; &amp;nbsp; &amp;nbsp; &amp;nbsp; &amp;nbsp; &amp;nbsp; &amp;nbsp; &amp;nbsp; &amp;nbsp;&lt;br&gt;&lt;br&gt;&amp;nbsp; &amp;nbsp; &amp;nbsp; &amp;nbsp; &amp;nbsp; &amp;nbsp; &amp;nbsp; &amp;nbsp; &amp;nbsp; &amp;nbsp; &amp;nbsp; &amp;nbsp; &amp;nbsp; &amp;nbsp; &amp;nbsp; &amp;nbsp; &amp;nbsp; &amp;nbsp; &amp;nbsp; &amp;nbsp; &amp;nbsp; &amp;nbsp; &amp;nbsp;&lt;br&gt;&amp;nbsp; &amp;nbsp; &amp;nbsp; &amp;nbsp; &amp;nbsp; &amp;nbsp; &amp;nbsp; &amp;nbsp; &amp;nbsp; &amp;nbsp; &amp;nbsp; &amp;nbsp; &amp;nbsp; &amp;nbsp; &amp;nbsp; &amp;nbsp; &lt;br&gt;&amp;nbsp; &amp;nbsp; &amp;nbsp; &amp;nbsp; &amp;nbsp; &amp;nbsp; &amp;nbsp; &amp;nbsp; &amp;nbsp; &amp;nbsp; &amp;nbsp; &amp;nbsp; &amp;nbsp; &amp;nbsp; &amp;nbsp; &amp;nbsp; &amp;nbsp;i try create custom reposity&amp;nbsp; extends with default reposity&amp;nbsp; . import in module and ude in service&amp;nbsp;&lt;br&gt;it works" style="text;html=1;align=center;verticalAlign=middle;resizable=0;points=[];autosize=1;strokeColor=none;fillColor=none;fontSize=18;fontColor=#1F1F1F;" parent="UdOhD3FomwutlEvzlqut-1" vertex="1">
                    <mxGeometry x="219" y="400" width="940" height="160" as="geometry"/>
                </mxCell>
            </root>
        </mxGraphModel>
    </diagram>
</mxfile>